/* XPM */
static char * icon_xpm[] = {
"32 32 111 2",
"  	c None",
". 	c #D8D8D8",
"+ 	c #E1E1E1",
"@ 	c #B5B5B5",
"# 	c #CACACA",
"$ 	c #ECECEC",
"% 	c #EEEEEE",
"& 	c #DDDDDD",
"* 	c #AAAAAA",
"= 	c #EFEFEF",
"- 	c #F0F0F0",
"; 	c #D0D0D0",
"> 	c #CBCBCB",
", 	c #ABABAB",
"' 	c #EBEBEB",
") 	c #BEBEBE",
"! 	c #D9D8D8",
"~ 	c #EEEEF0",
"{ 	c #EDEDED",
"] 	c #E4E4E4",
"^ 	c #B8B8B8",
"/ 	c #E6E4E3",
"( 	c #E6DA80",
"_ 	c #DDD8C9",
": 	c #DEDEDE",
"< 	c #E8E8E8",
"[ 	c #DCDAB3",
"} 	c #E1E198",
"| 	c #E8E990",
"1 	c #D4D19D",
"2 	c #E4E4DE",
"3 	c #C0C0C0",
"4 	c #DDD9D1",
"5 	c #EAE069",
"6 	c #D9CE6C",
"7 	c #DED775",
"8 	c #E4E18C",
"9 	c #DFDD94",
"0 	c #EDEEF1",
"a 	c #E6E6E6",
"b 	c #C4C4C4",
"c 	c #DAD094",
"d 	c #E9D446",
"e 	c #CBB541",
"f 	c #D7C348",
"g 	c #E6D54F",
"h 	c #DDD5A7",
"i 	c #CDCDCD",
"j 	c #B2B2B2",
"k 	c #B1B1B1",
"l 	c #EAEAEA",
"m 	c #BCBBBB",
"n 	c #EDEEF2",
"o 	c #D0C7AB",
"p 	c #C9AF33",
"q 	c #DAC02B",
"r 	c #D1BA41",
"s 	c #ECEDF3",
"t 	c #E5E5E5",
"u 	c #C2C2C2",
"v 	c #D2D2D2",
"w 	c #B7B7B7",
"x 	c #B3B3B3",
"y 	c #D3D3D3",
"z 	c #EAECF3",
"A 	c #CDBE87",
"B 	c #DDD6BE",
"C 	c #CECECE",
"D 	c #B0B0B0",
"E 	c #C9C9C9",
"F 	c #CFCFCF",
"G 	c #DBDBDB",
"H 	c #D6D6D6",
"I 	c #B9B9B9",
"J 	c #AFAFAF",
"K 	c #E6E5E5",
"L 	c #B6B6B6",
"M 	c #C5C5C5",
"N 	c #F1F1F1",
"O 	c #B4B4B4",
"P 	c #BCBCBC",
"Q 	c #7B7B7B",
"R 	c #808080",
"S 	c #7E7E7E",
"T 	c #979797",
"U 	c #C0BFBF",
"V 	c #CCCCCC",
"W 	c #DADADA",
"X 	c #E9E9E9",
"Y 	c #7C7C7C",
"Z 	c #D4D4D4",
"` 	c #C7C7C7",
" .	c #7D7D7D",
"..	c #EEEFEF",
"+.	c #B1B2B2",
"@.	c #7A7A7A",
"#.	c #D7D7D7",
"$.	c #C1C1C1",
"%.	c #9B9B9B",
"&.	c #BDBDBD",
"*.	c #DCDCDC",
"=.	c #7F7F7F",
"-.	c #A6A5A5",
";.	c #969696",
">.	c #C3C3C3",
",.	c #9C9C9C",
"'.	c #D5D5D5",
").	c #8F8F8F",
"!.	c #C6C6C6",
"~.	c #8E8D8D",
"{.	c #D1D0D0",
"                                                                ",
"                                                                ",
"                . + @                                           ",
"              # $ $ % & *                                       ",
"              = $ $ $ $ - ;                                     ",
"            ; $ $ $ $ $ $ $ = >                                 ",
"          , - $ $ $ $ $ $ $ $ $ ' )                             ",
"          ! ~ $ $ $ $ $ $ $ $ $ $ { ] ^                         ",
"        @ / ( _ ~ $ $ $ $ $ $ $ $ $ $ % :                       ",
"        < [ } | 1 2 $ $ $ { $ $ $ $ $ $ $ - ;                   ",
"      3 4 5 6 7 8 9 0 $ a b < { $ $ $ $ $ $ $ - b               ",
"      { c d e f g h { { i j k > $ $ $ $ $ $ $ $ $ l m           ",
"    > $ n o p q r s $ t u v w j x y % $ $ $ $ $ $ $ { + @       ",
"    - $ $ $ z A B $ $ C k D E F x j w G { $ $ $ $ $ $ $ % G     ",
"  H $ $ $ $ $ { $ $ $ % & I j j C > D J K $ % . L M = $ $ $ N @ ",
"D = $ $ $ $ $ $ $ $ % $ $ = H O j P < y { { P Q R S T - $ $ $ H ",
"H $ $ $ $ $ $ $ $ + U t { $ $ { V W $ $ $ X Q R R R Y Z $ $ = D ",
"@ N $ $ $ $ $ $ { V k D ` l $ $ { $ $ $ $ y  .R R R S E $ $ H   ",
"    G ..$ $ $ $ $ % & I j +.F { $ $ $ $ = < @.R R R Y < $ -     ",
"      @ + { $ $ $ $ $ = H O j @ #.{ - $.%.H &.@. .Y # { $ >     ",
"          m l $ $ $ $ $ $ { C k j % O  .S , $ t v l { $ $       ",
"              b - $ $ $ $ $ { X : *.Q R R R =.) -.{ $ { 3       ",
"                  ; - $ $ $ $ $ - ;.R R R R R =.S >.$ a         ",
"                      : % $ $ $ ' * Q R R R R R S ` % L         ",
"                        ^ ] { $ $ % + ,.Y R R R =.{ .           ",
"                            ) ' $ $ $ - '.).S =.I - ,           ",
"                                # = $ $ $ N !.~.= ;             ",
"                                    {.- $ $ $ - =               ",
"                                      * *.% $ $ #               ",
"                                          @ + .                 ",
"                                                                ",
"                                                                "};
